<svg xmlns="http://www.w3.org/2000/svg" viewBox="0 0 530 260" role="img" aria-label="Minimal silver envelope front">
  <defs>
    <linearGradient id="front" x1="0" y1="0" x2="0" y2="1">
      <stop offset="0" stop-color="#f4f4f2"/>
      <stop offset="1" stop-color="#d8dcde"/>
    </linearGradient>
    <linearGradient id="pocket" x1="0" y1="0" x2="1" y2="1">
      <stop offset="0" stop-color="#ffffff"/>
      <stop offset="1" stop-color="#e0e3e4"/>
    </linearGradient>
    <filter id="shadow" x="-6%" y="-10%" width="112%" height="120%">
      <feDropShadow dx="0" dy="8" stdDeviation="10" flood-color="#7e8387" flood-opacity="0.22"/>
    </filter>
  </defs>

  <g filter="url(#shadow)">
    <path d="M24 18H506V246C506 254 500 260 492 260H38C30 260 24 254 24 246Z" fill="url(#front)"/>
    <path d="M25 22L265 154L505 22V246C505 254 499 259 491 259H39C31 259 25 254 25 246Z" fill="url(#pocket)" stroke="#c3c7ca" stroke-width="2"/>
    <path d="M26 245L205 112" fill="none" stroke="#c8cccf" stroke-width="2"/>
    <path d="M504 245L325 112" fill="none" stroke="#c8cccf" stroke-width="2"/>
    <path d="M72 44H458" stroke="#ffffff" stroke-width="2" opacity="0.9"/>
    <path d="M94 226H436" stroke="#aeb4b8" stroke-width="1.2" opacity="0.55"/>
    <path d="M64 64H466" stroke="#d9dcde" stroke-width="1" opacity="0.68"/>
  </g>
</svg>
